<mxfile host="Electron" modified="2023-12-07T09:13:56.622Z" agent="Mozilla/5.0 (Windows NT 10.0; Win64; x64) AppleWebKit/537.36 (KHTML, like Gecko) draw.io/22.0.3 Chrome/114.0.5735.289 Electron/25.8.4 Safari/537.36" etag="blMG2xT2x4Drqcpg-eNv" version="22.0.3" type="device">
  <diagram name="Page-1" id="2YBvvXClWsGukQMizWep">
    <mxGraphModel dx="2078" dy="566" grid="1" gridSize="10" guides="1" tooltips="1" connect="1" arrows="1" fold="1" page="1" pageScale="1" pageWidth="1100" pageHeight="850" math="0" shadow="0">
      <root>
        <mxCell id="0" />
        <mxCell id="1" parent="0" />
        <mxCell id="2YKTz6H5Mc7EcmJh1waj-1" value="&amp;lt;&amp;lt;Controller&amp;gt;&amp;gt;&lt;br&gt;OxygenController" style="shape=umlLifeline;perimeter=lifelinePerimeter;whiteSpace=wrap;html=1;container=0;dropTarget=0;collapsible=0;recursiveResize=0;outlineConnect=0;portConstraint=eastwest;newEdgeStyle={&quot;edgeStyle&quot;:&quot;elbowEdgeStyle&quot;,&quot;elbow&quot;:&quot;vertical&quot;,&quot;curved&quot;:0,&quot;rounded&quot;:0};" parent="1" vertex="1">
          <mxGeometry x="-150" y="200" width="110" height="440" as="geometry" />
        </mxCell>
        <mxCell id="2YKTz6H5Mc7EcmJh1waj-2" value="" style="html=1;perimeter=orthogonalPerimeter;outlineConnect=0;targetShapes=umlLifeline;portConstraint=eastwest;newEdgeStyle={&quot;curved&quot;:0,&quot;rounded&quot;:0};points=[[0,0,0,0,0],[0,0.14,0,0,0],[0,0.25,0,0,0],[0,0.29,0,0,0],[0,0.43,0,0,0],[0,0.5,0,0,0],[0,0.57,0,0,0],[0,0.71,0,0,0],[0,0.75,0,0,0],[0,0.86,0,0,0],[0,1,0,0,0],[0.25,0,0,0,0],[0.25,1,0,0,0],[0.5,0,0,0,0],[0.5,1,0,0,0],[0.75,0,0,0,0],[0.75,1,0,0,0],[1,0,0,0,0],[1,0.01,0,0,0],[1,0.02,0,0,0],[1,0.03,0,0,0],[1,0.04,0,0,0],[1,0.05,0,0,0],[1,0.06,0,0,0],[1,0.07,0,0,0],[1,0.08,0,0,0],[1,0.09,0,0,0],[1,0.1,0,0,0],[1,0.11,0,0,0],[1,0.12,0,0,0],[1,0.13,0,0,0],[1,0.14,0,0,0],[1,0.15,0,0,0],[1,0.16,0,0,0],[1,0.17,0,0,0],[1,0.18,0,0,0],[1,0.19,0,0,0],[1,0.2,0,0,0],[1,0.21,0,0,0],[1,0.22,0,0,0],[1,0.23,0,0,0],[1,0.24,0,0,0],[1,0.25,0,0,0],[1,0.26,0,0,0],[1,0.27,0,0,0],[1,0.28,0,0,0],[1,0.29,0,0,0],[1,0.3,0,0,0],[1,0.31,0,0,0],[1,0.32,0,0,0],[1,0.33,0,0,0],[1,0.34,0,0,0],[1,0.35,0,0,0],[1,0.36,0,0,0],[1,0.37,0,0,0],[1,0.38,0,0,0],[1,0.39,0,0,0],[1,0.4,0,0,0],[1,0.41,0,0,0],[1,0.42,0,0,0],[1,0.43,0,0,0],[1,0.44,0,0,0],[1,0.45,0,0,0],[1,0.46,0,0,0],[1,0.47,0,0,0],[1,0.48,0,0,0],[1,0.49,0,0,0],[1,0.5,0,0,0],[1,0.51,0,0,0],[1,0.52,0,0,0],[1,0.53,0,0,0],[1,0.54,0,0,0],[1,0.55,0,0,0],[1,0.56,0,0,0],[1,0.57,0,0,0],[1,0.58,0,0,0],[1,0.59,0,0,0],[1,0.6,0,0,0],[1,0.61,0,0,0],[1,0.62,0,0,0],[1,0.63,0,0,0],[1,0.64,0,0,0],[1,0.65,0,0,0],[1,0.66,0,0,0],[1,0.67,0,0,0],[1,0.68,0,0,0],[1,0.69,0,0,0],[1,0.7,0,0,0],[1,0.71,0,0,0],[1,0.72,0,0,0],[1,0.73,0,0,0],[1,0.74,0,0,0],[1,0.75,0,0,0],[1,0.76,0,0,0],[1,0.77,0,0,0],[1,0.78,0,0,0],[1,0.79,0,0,0],[1,0.8,0,0,0],[1,0.81,0,0,0],[1,0.82,0,0,0],[1,0.83,0,0,0],[1,0.84,0,0,0],[1,0.85,0,0,0],[1,0.86,0,0,0],[1,0.87,0,0,0],[1,0.88,0,0,0],[1,0.89,0,0,0],[1,0.9,0,0,0],[1,0.91,0,0,0],[1,0.92,0,0,0],[1,0.93,0,0,0],[1,0.94,0,0,0],[1,0.95,0,0,0],[1,0.96,0,0,0],[1,0.97,0,0,0],[1,0.98,0,0,0],[1,0.99,0,0,0],[1,1,0,0,0]];" parent="2YKTz6H5Mc7EcmJh1waj-1" vertex="1">
          <mxGeometry x="50" y="60" width="10" height="340" as="geometry" />
        </mxCell>
        <mxCell id="2YKTz6H5Mc7EcmJh1waj-3" value="&amp;lt;&amp;lt;Interface&amp;gt;&amp;gt;&lt;br&gt;IOxygenMeasurementService" style="shape=umlLifeline;perimeter=lifelinePerimeter;whiteSpace=wrap;html=1;container=0;dropTarget=0;collapsible=0;recursiveResize=0;outlineConnect=0;portConstraint=eastwest;newEdgeStyle={&quot;edgeStyle&quot;:&quot;elbowEdgeStyle&quot;,&quot;elbow&quot;:&quot;vertical&quot;,&quot;curved&quot;:0,&quot;rounded&quot;:0};" parent="1" vertex="1">
          <mxGeometry x="570" y="200" width="170" height="440" as="geometry" />
        </mxCell>
        <mxCell id="2YKTz6H5Mc7EcmJh1waj-4" value="" style="html=1;perimeter=orthogonalPerimeter;outlineConnect=0;targetShapes=umlLifeline;portConstraint=eastwest;newEdgeStyle={&quot;curved&quot;:0,&quot;rounded&quot;:0};points=[[0,0,0,0,0],[0,0.01,0,0,0],[0,0.02,0,0,0],[0,0.03,0,0,0],[0,0.04,0,0,0],[0,0.05,0,0,0],[0,0.06,0,0,0],[0,0.07,0,0,0],[0,0.08,0,0,0],[0,0.09,0,0,0],[0,0.1,0,0,0],[0,0.11,0,0,0],[0,0.12,0,0,0],[0,0.13,0,0,0],[0,0.14,0,0,0],[0,0.15,0,0,0],[0,0.16,0,0,0],[0,0.17,0,0,0],[0,0.18,0,0,0],[0,0.19,0,0,0],[0,0.2,0,0,0],[0,0.21,0,0,0],[0,0.22,0,0,0],[0,0.23,0,0,0],[0,0.24,0,0,0],[0,0.25,0,0,0],[0,0.26,0,0,0],[0,0.27,0,0,0],[0,0.28,0,0,0],[0,0.29,0,0,0],[0,0.3,0,0,0],[0,0.31,0,0,0],[0,0.32,0,0,0],[0,0.33,0,0,0],[0,0.34,0,0,0],[0,0.35,0,0,0],[0,0.36,0,0,0],[0,0.37,0,0,0],[0,0.38,0,0,0],[0,0.39,0,0,0],[0,0.4,0,0,0],[0,0.41,0,0,0],[0,0.42,0,0,0],[0,0.43,0,0,0],[0,0.44,0,0,0],[0,0.45,0,0,0],[0,0.46,0,0,0],[0,0.47,0,0,0],[0,0.48,0,0,0],[0,0.49,0,0,0],[0,0.5,0,0,0],[0,0.51,0,0,0],[0,0.52,0,0,0],[0,0.53,0,0,0],[0,0.54,0,0,0],[0,0.55,0,0,0],[0,0.56,0,0,0],[0,0.57,0,0,0],[0,0.58,0,0,0],[0,0.59,0,0,0],[0,0.6,0,0,0],[0,0.61,0,0,0],[0,0.62,0,0,0],[0,0.63,0,0,0],[0,0.64,0,0,0],[0,0.65,0,0,0],[0,0.66,0,0,0],[0,0.67,0,0,0],[0,0.68,0,0,0],[0,0.69,0,0,0],[0,0.7,0,0,0],[0,0.71,0,0,0],[0,0.72,0,0,0],[0,0.73,0,0,0],[0,0.74,0,0,0],[0,0.75,0,0,0],[0,0.76,0,0,0],[0,0.77,0,0,0],[0,0.78,0,0,0],[0,0.79,0,0,0],[0,0.8,0,0,0],[0,0.81,0,0,0],[0,0.82,0,0,0],[0,0.83,0,0,0],[0,0.84,0,0,0],[0,0.85,0,0,0],[0,0.86,0,0,0],[0,0.87,0,0,0],[0,0.88,0,0,0],[0,0.89,0,0,0],[0,0.9,0,0,0],[0,0.91,0,0,0],[0,0.92,0,0,0],[0,0.93,0,0,0],[0,0.94,0,0,0],[0,0.95,0,0,0],[0,0.96,0,0,0],[0,0.97,0,0,0],[0,0.98,0,0,0],[0,0.99,0,0,0],[0,1,0,0,0],[0.25,0,0,0,0],[0.25,1,0,0,0],[0.5,0,0,0,0],[0.5,1,0,0,0],[0.75,0,0,0,0],[0.75,1,0,0,0],[1,0,0,0,0],[1,0.01,0,0,0],[1,0.02,0,0,0],[1,0.03,0,0,0],[1,0.04,0,0,0],[1,0.05,0,0,0],[1,0.06,0,0,0],[1,0.07,0,0,0],[1,0.08,0,0,0],[1,0.09,0,0,0],[1,0.1,0,0,0],[1,0.11,0,0,0],[1,0.12,0,0,0],[1,0.13,0,0,0],[1,0.14,0,0,0],[1,0.15,0,0,0],[1,0.16,0,0,0],[1,0.17,0,0,0],[1,0.18,0,0,0],[1,0.19,0,0,0],[1,0.2,0,0,0],[1,0.21,0,0,0],[1,0.22,0,0,0],[1,0.23,0,0,0],[1,0.24,0,0,0],[1,0.25,0,0,0],[1,0.26,0,0,0],[1,0.27,0,0,0],[1,0.28,0,0,0],[1,0.29,0,0,0],[1,0.3,0,0,0],[1,0.31,0,0,0],[1,0.32,0,0,0],[1,0.33,0,0,0],[1,0.34,0,0,0],[1,0.35,0,0,0],[1,0.36,0,0,0],[1,0.37,0,0,0],[1,0.38,0,0,0],[1,0.39,0,0,0],[1,0.4,0,0,0],[1,0.41,0,0,0],[1,0.42,0,0,0],[1,0.43,0,0,0],[1,0.44,0,0,0],[1,0.45,0,0,0],[1,0.46,0,0,0],[1,0.47,0,0,0],[1,0.48,0,0,0],[1,0.49,0,0,0],[1,0.5,0,0,0],[1,0.51,0,0,0],[1,0.52,0,0,0],[1,0.53,0,0,0],[1,0.54,0,0,0],[1,0.55,0,0,0],[1,0.56,0,0,0],[1,0.57,0,0,0],[1,0.58,0,0,0],[1,0.59,0,0,0],[1,0.6,0,0,0],[1,0.61,0,0,0],[1,0.62,0,0,0],[1,0.63,0,0,0],[1,0.64,0,0,0],[1,0.65,0,0,0],[1,0.66,0,0,0],[1,0.67,0,0,0],[1,0.68,0,0,0],[1,0.69,0,0,0],[1,0.7,0,0,0],[1,0.71,0,0,0],[1,0.72,0,0,0],[1,0.73,0,0,0],[1,0.74,0,0,0],[1,0.75,0,0,0],[1,0.76,0,0,0],[1,0.77,0,0,0],[1,0.78,0,0,0],[1,0.79,0,0,0],[1,0.8,0,0,0],[1,0.81,0,0,0],[1,0.82,0,0,0],[1,0.83,0,0,0],[1,0.84,0,0,0],[1,0.85,0,0,0],[1,0.86,0,0,0],[1,0.87,0,0,0],[1,0.88,0,0,0],[1,0.89,0,0,0],[1,0.9,0,0,0],[1,0.91,0,0,0],[1,0.92,0,0,0],[1,0.93,0,0,0],[1,0.94,0,0,0],[1,0.95,0,0,0],[1,0.96,0,0,0],[1,0.97,0,0,0],[1,0.98,0,0,0],[1,0.99,0,0,0],[1,1,0,0,0]];" parent="2YKTz6H5Mc7EcmJh1waj-3" vertex="1">
          <mxGeometry x="80" y="60" width="10" height="340" as="geometry" />
        </mxCell>
        <mxCell id="2YKTz6H5Mc7EcmJh1waj-5" value="&amp;lt;&amp;lt;Interface&amp;gt;&amp;gt;&lt;br&gt;IOxygenDbContext" style="shape=umlLifeline;perimeter=lifelinePerimeter;whiteSpace=wrap;html=1;container=0;dropTarget=0;collapsible=0;recursiveResize=0;outlineConnect=0;portConstraint=eastwest;newEdgeStyle={&quot;edgeStyle&quot;:&quot;elbowEdgeStyle&quot;,&quot;elbow&quot;:&quot;vertical&quot;,&quot;curved&quot;:0,&quot;rounded&quot;:0};" parent="1" vertex="1">
          <mxGeometry x="780" y="200" width="170" height="440" as="geometry" />
        </mxCell>
        <mxCell id="2YKTz6H5Mc7EcmJh1waj-6" value="" style="html=1;points=[[0,0,0,0,5],[0,0.01,0,0,0],[0,0.02,0,0,0],[0,0.03,0,0,0],[0,0.04,0,0,0],[0,0.05,0,0,0],[0,0.06,0,0,0],[0,0.07,0,0,0],[0,0.08,0,0,0],[0,0.09,0,0,0],[0,0.1,0,0,0],[0,0.11,0,0,0],[0,0.12,0,0,0],[0,0.13,0,0,0],[0,0.14,0,0,0],[0,0.15,0,0,0],[0,0.16,0,0,0],[0,0.17,0,0,0],[0,0.18,0,0,0],[0,0.19,0,0,0],[0,0.2,0,0,0],[0,0.21,0,0,0],[0,0.22,0,0,0],[0,0.23,0,0,0],[0,0.24,0,0,0],[0,0.25,0,0,0],[0,0.26,0,0,0],[0,0.27,0,0,0],[0,0.28,0,0,0],[0,0.29,0,0,0],[0,0.3,0,0,0],[0,0.31,0,0,0],[0,0.32,0,0,0],[0,0.33,0,0,0],[0,0.34,0,0,0],[0,0.35,0,0,0],[0,0.36,0,0,0],[0,0.37,0,0,0],[0,0.38,0,0,0],[0,0.39,0,0,0],[0,0.4,0,0,0],[0,0.41,0,0,0],[0,0.42,0,0,0],[0,0.43,0,0,0],[0,0.44,0,0,0],[0,0.45,0,0,0],[0,0.46,0,0,0],[0,0.47,0,0,0],[0,0.48,0,0,0],[0,0.49,0,0,0],[0,0.5,0,0,0],[0,0.51,0,0,0],[0,0.52,0,0,0],[0,0.53,0,0,0],[0,0.54,0,0,0],[0,0.55,0,0,0],[0,0.56,0,0,0],[0,0.57,0,0,0],[0,0.58,0,0,0],[0,0.59,0,0,0],[0,0.6,0,0,0],[0,0.61,0,0,0],[0,0.62,0,0,0],[0,0.63,0,0,0],[0,0.64,0,0,0],[0,0.65,0,0,0],[0,0.66,0,0,0],[0,0.67,0,0,0],[0,0.68,0,0,0],[0,0.69,0,0,0],[0,0.7,0,0,0],[0,0.71,0,0,0],[0,0.72,0,0,0],[0,0.73,0,0,0],[0,0.74,0,0,0],[0,0.75,0,0,0],[0,0.76,0,0,0],[0,0.77,0,0,0],[0,0.78,0,0,0],[0,0.79,0,0,0],[0,0.8,0,0,0],[0,0.81,0,0,0],[0,0.82,0,0,0],[0,0.83,0,0,0],[0,0.84,0,0,0],[0,0.85,0,0,0],[0,0.86,0,0,0],[0,0.87,0,0,0],[0,0.88,0,0,0],[0,0.89,0,0,0],[0,0.9,0,0,0],[0,0.91,0,0,0],[0,0.92,0,0,0],[0,0.93,0,0,0],[0,0.94,0,0,0],[0,0.95,0,0,0],[0,0.96,0,0,0],[0,0.97,0,0,0],[0,0.98,0,0,0],[0,0.99,0,0,0],[0,1,0,0,-5],[1,0,0,0,5],[1,0.01,0,0,0],[1,0.02,0,0,0],[1,0.03,0,0,0],[1,0.04,0,0,0],[1,0.05,0,0,0],[1,0.06,0,0,0],[1,0.07,0,0,0],[1,0.08,0,0,0],[1,0.09,0,0,0],[1,0.1,0,0,0],[1,0.11,0,0,0],[1,0.12,0,0,0],[1,0.13,0,0,0],[1,0.14,0,0,0],[1,0.15,0,0,0],[1,0.16,0,0,0],[1,0.17,0,0,0],[1,0.18,0,0,0],[1,0.19,0,0,0],[1,0.2,0,0,0],[1,0.21,0,0,0],[1,0.22,0,0,0],[1,0.23,0,0,0],[1,0.24,0,0,0],[1,0.25,0,0,0],[1,0.26,0,0,0],[1,0.27,0,0,0],[1,0.28,0,0,0],[1,0.29,0,0,0],[1,0.3,0,0,0],[1,0.31,0,0,0],[1,0.32,0,0,0],[1,0.33,0,0,0],[1,0.34,0,0,0],[1,0.35,0,0,0],[1,0.36,0,0,0],[1,0.37,0,0,0],[1,0.38,0,0,0],[1,0.39,0,0,0],[1,0.4,0,0,0],[1,0.41,0,0,0],[1,0.42,0,0,0],[1,0.43,0,0,0],[1,0.44,0,0,0],[1,0.45,0,0,0],[1,0.46,0,0,0],[1,0.47,0,0,0],[1,0.48,0,0,0],[1,0.49,0,0,0],[1,0.5,0,0,0],[1,0.51,0,0,0],[1,0.52,0,0,0],[1,0.53,0,0,0],[1,0.54,0,0,0],[1,0.55,0,0,0],[1,0.56,0,0,0],[1,0.57,0,0,0],[1,0.58,0,0,0],[1,0.59,0,0,0],[1,0.6,0,0,0],[1,0.61,0,0,0],[1,0.62,0,0,0],[1,0.63,0,0,0],[1,0.64,0,0,0],[1,0.65,0,0,0],[1,0.66,0,0,0],[1,0.67,0,0,0],[1,0.68,0,0,0],[1,0.69,0,0,0],[1,0.7,0,0,0],[1,0.71,0,0,0],[1,0.72,0,0,0],[1,0.73,0,0,0],[1,0.74,0,0,0],[1,0.75,0,0,0],[1,0.76,0,0,0],[1,0.77,0,0,0],[1,0.78,0,0,0],[1,0.79,0,0,0],[1,0.8,0,0,0],[1,0.81,0,0,0],[1,0.82,0,0,0],[1,0.83,0,0,0],[1,0.84,0,0,0],[1,0.85,0,0,0],[1,0.86,0,0,0],[1,0.87,0,0,0],[1,0.88,0,0,0],[1,0.89,0,0,0],[1,0.9,0,0,0],[1,0.91,0,0,0],[1,0.92,0,0,0],[1,0.93,0,0,0],[1,0.94,0,0,0],[1,0.95,0,0,0],[1,0.96,0,0,0],[1,0.97,0,0,0],[1,0.98,0,0,0],[1,0.99,0,0,0],[1,1,0,0,-5]];perimeter=orthogonalPerimeter;outlineConnect=0;targetShapes=umlLifeline;portConstraint=eastwest;newEdgeStyle={&quot;curved&quot;:0,&quot;rounded&quot;:0};" parent="2YKTz6H5Mc7EcmJh1waj-5" vertex="1">
          <mxGeometry x="80" y="100" width="10" height="90" as="geometry" />
        </mxCell>
        <mxCell id="2YKTz6H5Mc7EcmJh1waj-7" style="edgeStyle=orthogonalEdgeStyle;rounded=0;orthogonalLoop=1;jettySize=auto;html=1;curved=0;exitX=1;exitY=0;exitDx=0;exitDy=5;exitPerimeter=0;" parent="2YKTz6H5Mc7EcmJh1waj-5" source="2YKTz6H5Mc7EcmJh1waj-6" target="2YKTz6H5Mc7EcmJh1waj-6" edge="1">
          <mxGeometry relative="1" as="geometry">
            <Array as="points">
              <mxPoint x="120" y="105" />
              <mxPoint x="120" y="175" />
            </Array>
          </mxGeometry>
        </mxCell>
        <mxCell id="2YKTz6H5Mc7EcmJh1waj-38" value="ToListAsync(oxygenMeasurement)" style="edgeLabel;html=1;align=center;verticalAlign=middle;resizable=0;points=[];" parent="2YKTz6H5Mc7EcmJh1waj-7" vertex="1" connectable="0">
          <mxGeometry x="-0.0308" y="-3" relative="1" as="geometry">
            <mxPoint x="73" as="offset" />
          </mxGeometry>
        </mxCell>
        <mxCell id="2YKTz6H5Mc7EcmJh1waj-11" style="edgeStyle=orthogonalEdgeStyle;rounded=0;orthogonalLoop=1;jettySize=auto;html=1;curved=0;exitX=1;exitY=0.12;exitDx=0;exitDy=0;exitPerimeter=0;entryX=0;entryY=0.01;entryDx=0;entryDy=0;entryPerimeter=0;" parent="1" source="2YKTz6H5Mc7EcmJh1waj-4" target="2YKTz6H5Mc7EcmJh1waj-6" edge="1">
          <mxGeometry relative="1" as="geometry">
            <mxPoint x="760" y="360" as="targetPoint" />
            <mxPoint x="660" y="305" as="sourcePoint" />
            <Array as="points">
              <mxPoint x="761" y="301" />
              <mxPoint x="860" y="301" />
            </Array>
          </mxGeometry>
        </mxCell>
        <mxCell id="2YKTz6H5Mc7EcmJh1waj-12" value="GetOxygenMeasurements" style="edgeLabel;html=1;align=center;verticalAlign=middle;resizable=0;points=[];" parent="2YKTz6H5Mc7EcmJh1waj-11" vertex="1" connectable="0">
          <mxGeometry x="-0.1038" y="-1" relative="1" as="geometry">
            <mxPoint as="offset" />
          </mxGeometry>
        </mxCell>
        <mxCell id="2YKTz6H5Mc7EcmJh1waj-13" style="edgeStyle=orthogonalEdgeStyle;rounded=0;orthogonalLoop=1;jettySize=auto;html=1;curved=0;entryX=1;entryY=0.37;entryDx=0;entryDy=0;entryPerimeter=0;exitX=0;exitY=1;exitDx=0;exitDy=-5;exitPerimeter=0;endArrow=open;endFill=0;dashed=1;" parent="1" source="2YKTz6H5Mc7EcmJh1waj-6" target="2YKTz6H5Mc7EcmJh1waj-4" edge="1">
          <mxGeometry relative="1" as="geometry">
            <mxPoint x="660" y="375" as="targetPoint" />
          </mxGeometry>
        </mxCell>
        <mxCell id="2YKTz6H5Mc7EcmJh1waj-14" value="List&amp;lt;OxygenMeasurement&amp;gt;" style="edgeLabel;html=1;align=center;verticalAlign=middle;resizable=0;points=[];" parent="2YKTz6H5Mc7EcmJh1waj-13" vertex="1" connectable="0">
          <mxGeometry x="0.1278" relative="1" as="geometry">
            <mxPoint x="13" as="offset" />
          </mxGeometry>
        </mxCell>
        <mxCell id="2YKTz6H5Mc7EcmJh1waj-21" value="DbEntityToDtoResponseMapper" style="shape=umlLifeline;perimeter=lifelinePerimeter;whiteSpace=wrap;html=1;container=0;dropTarget=0;collapsible=0;recursiveResize=0;outlineConnect=0;portConstraint=eastwest;newEdgeStyle={&quot;edgeStyle&quot;:&quot;elbowEdgeStyle&quot;,&quot;elbow&quot;:&quot;vertical&quot;,&quot;curved&quot;:0,&quot;rounded&quot;:0};" parent="1" vertex="1">
          <mxGeometry x="280" y="200" width="180" height="440" as="geometry" />
        </mxCell>
        <mxCell id="2YKTz6H5Mc7EcmJh1waj-25" value="" style="html=1;perimeter=orthogonalPerimeter;outlineConnect=0;targetShapes=umlLifeline;portConstraint=eastwest;newEdgeStyle={&quot;curved&quot;:0,&quot;rounded&quot;:0};points=[[0,0,0,0,0],[0,0.01,0,0,0],[0,0.02,0,0,0],[0,0.03,0,0,0],[0,0.04,0,0,0],[0,0.05,0,0,0],[0,0.06,0,0,0],[0,0.07,0,0,0],[0,0.08,0,0,0],[0,0.09,0,0,0],[0,0.1,0,0,0],[0,0.11,0,0,0],[0,0.12,0,0,0],[0,0.13,0,0,0],[0,0.14,0,0,0],[0,0.15,0,0,0],[0,0.16,0,0,0],[0,0.17,0,0,0],[0,0.18,0,0,0],[0,0.19,0,0,0],[0,0.2,0,0,0],[0,0.21,0,0,0],[0,0.22,0,0,0],[0,0.23,0,0,0],[0,0.24,0,0,0],[0,0.25,0,0,0],[0,0.26,0,0,0],[0,0.27,0,0,0],[0,0.28,0,0,0],[0,0.29,0,0,0],[0,0.3,0,0,0],[0,0.31,0,0,0],[0,0.32,0,0,0],[0,0.33,0,0,0],[0,0.34,0,0,0],[0,0.35,0,0,0],[0,0.36,0,0,0],[0,0.37,0,0,0],[0,0.38,0,0,0],[0,0.39,0,0,0],[0,0.4,0,0,0],[0,0.41,0,0,0],[0,0.42,0,0,0],[0,0.43,0,0,0],[0,0.44,0,0,0],[0,0.45,0,0,0],[0,0.46,0,0,0],[0,0.47,0,0,0],[0,0.48,0,0,0],[0,0.49,0,0,0],[0,0.5,0,0,0],[0,0.51,0,0,0],[0,0.52,0,0,0],[0,0.53,0,0,0],[0,0.54,0,0,0],[0,0.55,0,0,0],[0,0.56,0,0,0],[0,0.57,0,0,0],[0,0.58,0,0,0],[0,0.59,0,0,0],[0,0.6,0,0,0],[0,0.61,0,0,0],[0,0.62,0,0,0],[0,0.63,0,0,0],[0,0.64,0,0,0],[0,0.65,0,0,0],[0,0.66,0,0,0],[0,0.67,0,0,0],[0,0.68,0,0,0],[0,0.69,0,0,0],[0,0.7,0,0,0],[0,0.71,0,0,0],[0,0.72,0,0,0],[0,0.73,0,0,0],[0,0.74,0,0,0],[0,0.75,0,0,0],[0,0.76,0,0,0],[0,0.77,0,0,0],[0,0.78,0,0,0],[0,0.79,0,0,0],[0,0.8,0,0,0],[0,0.81,0,0,0],[0,0.82,0,0,0],[0,0.83,0,0,0],[0,0.84,0,0,0],[0,0.85,0,0,0],[0,0.86,0,0,0],[0,0.87,0,0,0],[0,0.88,0,0,0],[0,0.89,0,0,0],[0,0.9,0,0,0],[0,0.91,0,0,0],[0,0.92,0,0,0],[0,0.93,0,0,0],[0,0.94,0,0,0],[0,0.95,0,0,0],[0,0.96,0,0,0],[0,0.97,0,0,0],[0,0.98,0,0,0],[0,0.99,0,0,0],[0,1,0,0,0],[0.25,0,0,0,0],[0.25,1,0,0,0],[0.5,0,0,0,0],[0.5,1,0,0,0],[0.75,0,0,0,0],[0.75,1,0,0,0],[1,0,0,0,0],[1,0.08,0,0,0],[1,0.15,0,0,0],[1,0.23,0,0,0],[1,0.25,0,0,0],[1,0.31,0,0,0],[1,0.38,0,0,0],[1,0.46,0,0,0],[1,0.5,0,0,0],[1,0.54,0,0,0],[1,0.62,0,0,0],[1,0.69,0,0,0],[1,0.75,0,0,0],[1,0.77,0,0,0],[1,0.85,0,0,0],[1,0.92,0,0,0],[1,1,0,0,0]];" parent="2YKTz6H5Mc7EcmJh1waj-21" vertex="1">
          <mxGeometry x="85" y="230" width="10" height="70" as="geometry" />
        </mxCell>
        <mxCell id="CFlIq9kzoiFnMFuIB-S7-7" value="" style="html=1;perimeter=orthogonalPerimeter;outlineConnect=0;targetShapes=umlLifeline;portConstraint=eastwest;newEdgeStyle={&quot;curved&quot;:0,&quot;rounded&quot;:0};points=[[0,0,0,0,0],[0,0.01,0,0,0],[0,0.02,0,0,0],[0,0.03,0,0,0],[0,0.04,0,0,0],[0,0.05,0,0,0],[0,0.06,0,0,0],[0,0.07,0,0,0],[0,0.08,0,0,0],[0,0.09,0,0,0],[0,0.1,0,0,0],[0,0.11,0,0,0],[0,0.12,0,0,0],[0,0.13,0,0,0],[0,0.14,0,0,0],[0,0.15,0,0,0],[0,0.16,0,0,0],[0,0.17,0,0,0],[0,0.18,0,0,0],[0,0.19,0,0,0],[0,0.2,0,0,0],[0,0.21,0,0,0],[0,0.22,0,0,0],[0,0.23,0,0,0],[0,0.24,0,0,0],[0,0.25,0,0,0],[0,0.26,0,0,0],[0,0.27,0,0,0],[0,0.28,0,0,0],[0,0.29,0,0,0],[0,0.3,0,0,0],[0,0.31,0,0,0],[0,0.32,0,0,0],[0,0.33,0,0,0],[0,0.34,0,0,0],[0,0.35,0,0,0],[0,0.36,0,0,0],[0,0.37,0,0,0],[0,0.38,0,0,0],[0,0.39,0,0,0],[0,0.4,0,0,0],[0,0.41,0,0,0],[0,0.42,0,0,0],[0,0.43,0,0,0],[0,0.44,0,0,0],[0,0.45,0,0,0],[0,0.46,0,0,0],[0,0.47,0,0,0],[0,0.48,0,0,0],[0,0.49,0,0,0],[0,0.5,0,0,0],[0,0.51,0,0,0],[0,0.52,0,0,0],[0,0.53,0,0,0],[0,0.54,0,0,0],[0,0.55,0,0,0],[0,0.56,0,0,0],[0,0.57,0,0,0],[0,0.58,0,0,0],[0,0.59,0,0,0],[0,0.6,0,0,0],[0,0.61,0,0,0],[0,0.62,0,0,0],[0,0.63,0,0,0],[0,0.64,0,0,0],[0,0.65,0,0,0],[0,0.66,0,0,0],[0,0.67,0,0,0],[0,0.68,0,0,0],[0,0.69,0,0,0],[0,0.7,0,0,0],[0,0.71,0,0,0],[0,0.72,0,0,0],[0,0.73,0,0,0],[0,0.74,0,0,0],[0,0.75,0,0,0],[0,0.76,0,0,0],[0,0.77,0,0,0],[0,0.78,0,0,0],[0,0.79,0,0,0],[0,0.8,0,0,0],[0,0.81,0,0,0],[0,0.82,0,0,0],[0,0.83,0,0,0],[0,0.84,0,0,0],[0,0.85,0,0,0],[0,0.86,0,0,0],[0,0.87,0,0,0],[0,0.88,0,0,0],[0,0.89,0,0,0],[0,0.9,0,0,0],[0,0.91,0,0,0],[0,0.92,0,0,0],[0,0.93,0,0,0],[0,0.94,0,0,0],[0,0.95,0,0,0],[0,0.96,0,0,0],[0,0.97,0,0,0],[0,0.98,0,0,0],[0,0.99,0,0,0],[0,1,0,0,0],[0.25,0,0,0,0],[0.25,1,0,0,0],[0.5,0,0,0,0],[0.5,1,0,0,0],[0.75,0,0,0,0],[0.75,1,0,0,0],[1,0,0,0,0],[1,0.08,0,0,0],[1,0.15,0,0,0],[1,0.23,0,0,0],[1,0.25,0,0,0],[1,0.31,0,0,0],[1,0.38,0,0,0],[1,0.46,0,0,0],[1,0.5,0,0,0],[1,0.54,0,0,0],[1,0.62,0,0,0],[1,0.69,0,0,0],[1,0.75,0,0,0],[1,0.77,0,0,0],[1,0.85,0,0,0],[1,0.92,0,0,0],[1,1,0,0,0]];" vertex="1" parent="2YKTz6H5Mc7EcmJh1waj-21">
          <mxGeometry x="85" y="100" width="10" height="70" as="geometry" />
        </mxCell>
        <mxCell id="2YKTz6H5Mc7EcmJh1waj-24" style="edgeStyle=orthogonalEdgeStyle;rounded=0;orthogonalLoop=1;jettySize=auto;html=1;curved=0;exitX=0;exitY=0.5;exitDx=0;exitDy=0;exitPerimeter=0;entryX=1;entryY=0;entryDx=0;entryDy=0;entryPerimeter=0;dashed=1;endArrow=open;endFill=0;" parent="1" source="2YKTz6H5Mc7EcmJh1waj-4" target="2YKTz6H5Mc7EcmJh1waj-25" edge="1">
          <mxGeometry relative="1" as="geometry">
            <Array as="points">
              <mxPoint x="520" y="430" />
              <mxPoint x="520" y="430" />
            </Array>
          </mxGeometry>
        </mxCell>
        <mxCell id="2YKTz6H5Mc7EcmJh1waj-32" value="List&amp;lt;OxygenMeasurement&amp;gt;" style="edgeLabel;html=1;align=center;verticalAlign=middle;resizable=0;points=[];" parent="2YKTz6H5Mc7EcmJh1waj-24" vertex="1" connectable="0">
          <mxGeometry x="0.1134" y="-1" relative="1" as="geometry">
            <mxPoint x="9" y="1" as="offset" />
          </mxGeometry>
        </mxCell>
        <mxCell id="2YKTz6H5Mc7EcmJh1waj-29" style="edgeStyle=orthogonalEdgeStyle;rounded=0;orthogonalLoop=1;jettySize=auto;html=1;curved=0;entryX=1;entryY=0.69;entryDx=0;entryDy=0;entryPerimeter=0;endArrow=open;endFill=0;dashed=1;exitX=0;exitY=0.93;exitDx=0;exitDy=0;exitPerimeter=0;" parent="1" source="2YKTz6H5Mc7EcmJh1waj-25" target="2YKTz6H5Mc7EcmJh1waj-2" edge="1">
          <mxGeometry relative="1" as="geometry">
            <mxPoint x="360" y="480" as="sourcePoint" />
          </mxGeometry>
        </mxCell>
        <mxCell id="2YKTz6H5Mc7EcmJh1waj-30" value="statucode 200(List&amp;lt;OxygenMeasurementResponseDto&amp;gt;)" style="edgeLabel;html=1;align=center;verticalAlign=middle;resizable=0;points=[];" parent="2YKTz6H5Mc7EcmJh1waj-29" vertex="1" connectable="0">
          <mxGeometry x="0.1252" y="-2" relative="1" as="geometry">
            <mxPoint x="19" y="1" as="offset" />
          </mxGeometry>
        </mxCell>
        <mxCell id="2YKTz6H5Mc7EcmJh1waj-9" style="edgeStyle=orthogonalEdgeStyle;rounded=0;orthogonalLoop=1;jettySize=auto;html=1;curved=0;exitX=1;exitY=0.01;exitDx=0;exitDy=0;exitPerimeter=0;entryX=0;entryY=0.05;entryDx=0;entryDy=0;entryPerimeter=0;" parent="1" source="2YKTz6H5Mc7EcmJh1waj-2" target="CFlIq9kzoiFnMFuIB-S7-4" edge="1">
          <mxGeometry relative="1" as="geometry">
            <mxPoint x="20" y="263" as="targetPoint" />
          </mxGeometry>
        </mxCell>
        <mxCell id="2YKTz6H5Mc7EcmJh1waj-10" value="GetAllMeasurements()" style="edgeLabel;html=1;align=center;verticalAlign=middle;resizable=0;points=[];" parent="2YKTz6H5Mc7EcmJh1waj-9" vertex="1" connectable="0">
          <mxGeometry x="-0.0333" y="2" relative="1" as="geometry">
            <mxPoint x="-23" as="offset" />
          </mxGeometry>
        </mxCell>
        <mxCell id="CFlIq9kzoiFnMFuIB-S7-1" value="RequestToDbEntityMapper" style="shape=umlLifeline;perimeter=lifelinePerimeter;whiteSpace=wrap;html=1;container=0;dropTarget=0;collapsible=0;recursiveResize=0;outlineConnect=0;portConstraint=eastwest;newEdgeStyle={&quot;edgeStyle&quot;:&quot;elbowEdgeStyle&quot;,&quot;elbow&quot;:&quot;vertical&quot;,&quot;curved&quot;:0,&quot;rounded&quot;:0};" vertex="1" parent="1">
          <mxGeometry x="30" y="200" width="180" height="440" as="geometry" />
        </mxCell>
        <mxCell id="CFlIq9kzoiFnMFuIB-S7-2" value="" style="html=1;perimeter=orthogonalPerimeter;outlineConnect=0;targetShapes=umlLifeline;portConstraint=eastwest;newEdgeStyle={&quot;curved&quot;:0,&quot;rounded&quot;:0};points=[[0,0,0,0,0],[0,0.01,0,0,0],[0,0.02,0,0,0],[0,0.03,0,0,0],[0,0.04,0,0,0],[0,0.05,0,0,0],[0,0.06,0,0,0],[0,0.07,0,0,0],[0,0.08,0,0,0],[0,0.09,0,0,0],[0,0.1,0,0,0],[0,0.11,0,0,0],[0,0.12,0,0,0],[0,0.13,0,0,0],[0,0.14,0,0,0],[0,0.15,0,0,0],[0,0.16,0,0,0],[0,0.17,0,0,0],[0,0.18,0,0,0],[0,0.19,0,0,0],[0,0.2,0,0,0],[0,0.21,0,0,0],[0,0.22,0,0,0],[0,0.23,0,0,0],[0,0.24,0,0,0],[0,0.25,0,0,0],[0,0.26,0,0,0],[0,0.27,0,0,0],[0,0.28,0,0,0],[0,0.29,0,0,0],[0,0.3,0,0,0],[0,0.31,0,0,0],[0,0.32,0,0,0],[0,0.33,0,0,0],[0,0.34,0,0,0],[0,0.35,0,0,0],[0,0.36,0,0,0],[0,0.37,0,0,0],[0,0.38,0,0,0],[0,0.39,0,0,0],[0,0.4,0,0,0],[0,0.41,0,0,0],[0,0.42,0,0,0],[0,0.43,0,0,0],[0,0.44,0,0,0],[0,0.45,0,0,0],[0,0.46,0,0,0],[0,0.47,0,0,0],[0,0.48,0,0,0],[0,0.49,0,0,0],[0,0.5,0,0,0],[0,0.51,0,0,0],[0,0.52,0,0,0],[0,0.53,0,0,0],[0,0.54,0,0,0],[0,0.55,0,0,0],[0,0.56,0,0,0],[0,0.57,0,0,0],[0,0.58,0,0,0],[0,0.59,0,0,0],[0,0.6,0,0,0],[0,0.61,0,0,0],[0,0.62,0,0,0],[0,0.63,0,0,0],[0,0.64,0,0,0],[0,0.65,0,0,0],[0,0.66,0,0,0],[0,0.67,0,0,0],[0,0.68,0,0,0],[0,0.69,0,0,0],[0,0.7,0,0,0],[0,0.71,0,0,0],[0,0.72,0,0,0],[0,0.73,0,0,0],[0,0.74,0,0,0],[0,0.75,0,0,0],[0,0.76,0,0,0],[0,0.77,0,0,0],[0,0.78,0,0,0],[0,0.79,0,0,0],[0,0.8,0,0,0],[0,0.81,0,0,0],[0,0.82,0,0,0],[0,0.83,0,0,0],[0,0.84,0,0,0],[0,0.85,0,0,0],[0,0.86,0,0,0],[0,0.87,0,0,0],[0,0.88,0,0,0],[0,0.89,0,0,0],[0,0.9,0,0,0],[0,0.91,0,0,0],[0,0.92,0,0,0],[0,0.93,0,0,0],[0,0.94,0,0,0],[0,0.95,0,0,0],[0,0.96,0,0,0],[0,0.97,0,0,0],[0,0.98,0,0,0],[0,0.99,0,0,0],[0,1,0,0,0],[0.25,0,0,0,0],[0.25,1,0,0,0],[0.5,0,0,0,0],[0.5,1,0,0,0],[0.75,0,0,0,0],[0.75,1,0,0,0],[1,0,0,0,0],[1,0.08,0,0,0],[1,0.15,0,0,0],[1,0.23,0,0,0],[1,0.25,0,0,0],[1,0.31,0,0,0],[1,0.38,0,0,0],[1,0.46,0,0,0],[1,0.5,0,0,0],[1,0.54,0,0,0],[1,0.62,0,0,0],[1,0.69,0,0,0],[1,0.75,0,0,0],[1,0.77,0,0,0],[1,0.85,0,0,0],[1,0.92,0,0,0],[1,1,0,0,0]];" vertex="1" parent="CFlIq9kzoiFnMFuIB-S7-1">
          <mxGeometry x="85" y="230" width="10" height="70" as="geometry" />
        </mxCell>
        <mxCell id="CFlIq9kzoiFnMFuIB-S7-4" value="" style="html=1;perimeter=orthogonalPerimeter;outlineConnect=0;targetShapes=umlLifeline;portConstraint=eastwest;newEdgeStyle={&quot;curved&quot;:0,&quot;rounded&quot;:0};points=[[0,0,0,0,0],[0,0.01,0,0,0],[0,0.02,0,0,0],[0,0.03,0,0,0],[0,0.04,0,0,0],[0,0.05,0,0,0],[0,0.06,0,0,0],[0,0.07,0,0,0],[0,0.08,0,0,0],[0,0.09,0,0,0],[0,0.1,0,0,0],[0,0.11,0,0,0],[0,0.12,0,0,0],[0,0.13,0,0,0],[0,0.14,0,0,0],[0,0.15,0,0,0],[0,0.16,0,0,0],[0,0.17,0,0,0],[0,0.18,0,0,0],[0,0.19,0,0,0],[0,0.2,0,0,0],[0,0.21,0,0,0],[0,0.22,0,0,0],[0,0.23,0,0,0],[0,0.24,0,0,0],[0,0.25,0,0,0],[0,0.26,0,0,0],[0,0.27,0,0,0],[0,0.28,0,0,0],[0,0.29,0,0,0],[0,0.3,0,0,0],[0,0.31,0,0,0],[0,0.32,0,0,0],[0,0.33,0,0,0],[0,0.34,0,0,0],[0,0.35,0,0,0],[0,0.36,0,0,0],[0,0.37,0,0,0],[0,0.38,0,0,0],[0,0.39,0,0,0],[0,0.4,0,0,0],[0,0.41,0,0,0],[0,0.42,0,0,0],[0,0.43,0,0,0],[0,0.44,0,0,0],[0,0.45,0,0,0],[0,0.46,0,0,0],[0,0.47,0,0,0],[0,0.48,0,0,0],[0,0.49,0,0,0],[0,0.5,0,0,0],[0,0.51,0,0,0],[0,0.52,0,0,0],[0,0.53,0,0,0],[0,0.54,0,0,0],[0,0.55,0,0,0],[0,0.56,0,0,0],[0,0.57,0,0,0],[0,0.58,0,0,0],[0,0.59,0,0,0],[0,0.6,0,0,0],[0,0.61,0,0,0],[0,0.62,0,0,0],[0,0.63,0,0,0],[0,0.64,0,0,0],[0,0.65,0,0,0],[0,0.66,0,0,0],[0,0.67,0,0,0],[0,0.68,0,0,0],[0,0.69,0,0,0],[0,0.7,0,0,0],[0,0.71,0,0,0],[0,0.72,0,0,0],[0,0.73,0,0,0],[0,0.74,0,0,0],[0,0.75,0,0,0],[0,0.76,0,0,0],[0,0.77,0,0,0],[0,0.78,0,0,0],[0,0.79,0,0,0],[0,0.8,0,0,0],[0,0.81,0,0,0],[0,0.82,0,0,0],[0,0.83,0,0,0],[0,0.84,0,0,0],[0,0.85,0,0,0],[0,0.86,0,0,0],[0,0.87,0,0,0],[0,0.88,0,0,0],[0,0.89,0,0,0],[0,0.9,0,0,0],[0,0.91,0,0,0],[0,0.92,0,0,0],[0,0.93,0,0,0],[0,0.94,0,0,0],[0,0.95,0,0,0],[0,0.96,0,0,0],[0,0.97,0,0,0],[0,0.98,0,0,0],[0,0.99,0,0,0],[0,1,0,0,0],[0.25,0,0,0,0],[0.25,1,0,0,0],[0.5,0,0,0,0],[0.5,1,0,0,0],[0.75,0,0,0,0],[0.75,1,0,0,0],[1,0,0,0,0],[1,0.08,0,0,0],[1,0.15,0,0,0],[1,0.23,0,0,0],[1,0.25,0,0,0],[1,0.31,0,0,0],[1,0.38,0,0,0],[1,0.46,0,0,0],[1,0.5,0,0,0],[1,0.54,0,0,0],[1,0.62,0,0,0],[1,0.69,0,0,0],[1,0.75,0,0,0],[1,0.77,0,0,0],[1,0.85,0,0,0],[1,0.92,0,0,0],[1,1,0,0,0]];" vertex="1" parent="CFlIq9kzoiFnMFuIB-S7-1">
          <mxGeometry x="85" y="60" width="10" height="70" as="geometry" />
        </mxCell>
        <mxCell id="CFlIq9kzoiFnMFuIB-S7-5" style="edgeStyle=orthogonalEdgeStyle;rounded=0;orthogonalLoop=1;jettySize=auto;html=1;curved=0;exitX=1;exitY=0.92;exitDx=0;exitDy=0;exitPerimeter=0;entryX=0;entryY=0.32;entryDx=0;entryDy=0;entryPerimeter=0;" edge="1" parent="1" source="CFlIq9kzoiFnMFuIB-S7-4" target="CFlIq9kzoiFnMFuIB-S7-7">
          <mxGeometry relative="1" as="geometry">
            <mxPoint x="170" y="379" as="sourcePoint" />
            <mxPoint x="410" y="350.4" as="targetPoint" />
            <Array as="points">
              <mxPoint x="125" y="322" />
            </Array>
          </mxGeometry>
        </mxCell>
      </root>
    </mxGraphModel>
  </diagram>
</mxfile>
